<svg xmlns="http://www.w3.org/2000/svg" viewBox="0 0 172.16 110.12"><defs><style>.cls-1{fill:#be1f29;stroke:#fdfdfd;stroke-width:4px;}.cls-1,.cls-2{stroke-miterlimit:10;}.cls-2{fill:#fff;stroke:#fff;stroke-width:2px;}</style></defs><g id="Camada_2" data-name="Camada 2"><g id="Camada_1-2" data-name="Camada 1"><path class="cls-1" d="M3.59,54S43.05,67.33,54.09,38.9c0,0,3.34-27.42,29.76-20.73.11,0,1-1.09,1.07-1.18,1-1,2-2.06,3.06-3,8.08-7.47,19.29-14.19,30.7-11.24A24.37,24.37,0,0,1,129.51,9.1c4.49,4.43,7.62,10,10.19,15.76,0,0,29.43-1,30.43,29.43s-31.77,33.78-31.77,33.78-5.43,30.42-44.81,14.38c0,0-29.77,17.39-43.81-8.7C49.74,93.75,20.64,94.08,3.59,54Z"/><path class="cls-2" d="M87.64,35.56a3.82,3.82,0,0,1-7.64,0,3.75,3.75,0,0,1,3.85-3.85A3.66,3.66,0,0,1,87.64,35.56ZM80.77,79V45.08h6.17V79Z"/><path class="cls-2" d="M97.15,54.25c0-3.5-.07-6.37-.28-9.17h5.46l.35,5.6h.15A12.45,12.45,0,0,1,114,44.31c4.69,0,12,2.8,12,14.42V79h-6.16V59.43c0-5.46-2-10-7.84-10a8.75,8.75,0,0,0-8.26,6.3,8.59,8.59,0,0,0-.42,2.87V79H97.15Z"/></g></g></svg>